<?xml version="1.0" standalone="no"?>
<!DOCTYPE svg PUBLIC "-//W3C//DTD SVG 20010904//EN"
 "http://www.w3.org/TR/2001/REC-SVG-20010904/DTD/svg10.dtd">
<svg version="1.0" xmlns="http://www.w3.org/2000/svg"
 width="700.000000pt" height="700.000000pt" viewBox="0 0 700.000000 700.000000"
 preserveAspectRatio="xMidYMid meet">
<metadata>
Created by potrace 1.14, written by Peter Selinger 2001-2017
</metadata>
<g transform="translate(0.000000,700.000000) scale(0.100000,-0.100000)"
fill="#000000" stroke="none">
<path d="M3298 6295 c-2 -2 -37 -6 -78 -10 -41 -3 -118 -13 -170 -21 -815
-133 -1538 -627 -1961 -1340 -123 -207 -232 -467 -293 -694 -24 -92 -30 -115
-42 -190 -3 -19 -8 -38 -9 -41 -2 -3 -7 -28 -10 -55 -4 -27 -8 -60 -11 -74
-13 -76 -19 -196 -19 -370 0 -244 9 -341 51 -560 61 -316 216 -693 399 -970
474 -716 1213 -1165 2070 -1257 137 -15 547 -8 640 11 11 2 43 7 70 10 28 4
57 9 65 11 8 2 31 6 50 9 51 8 222 53 315 83 351 114 702 313 972 551 293 259
510 542 681 889 47 95 127 291 139 338 1 6 16 54 32 108 36 120 65 255 87 407
19 130 27 511 13 625 -4 39 -11 90 -13 115 -3 25 -13 84 -22 130 -9 47 -18 96
-20 110 -38 213 -200 618 -332 830 -76 122 -191 284 -250 352 -377 439 -819
731 -1352 891 -114 35 -275 71 -359 82 -23 3 -57 8 -74 10 -17 3 -51 8 -76 11
-50 6 -488 14 -493 9z m382 -1061 c254 -47 481 -181 635 -374 72 -90 110 -155
157 -269 53 -132 72 -231 73 -381 0 -171 -13 -250 -68 -390 -96 -252 -305
-471 -547 -577 -73 -32 -75 -33 -77 -70 -6 -90 -26 -159 -60 -210 -72 -109
-162 -157 -293 -158 -76 0 -92 3 -152 33 -77 38 -130 92 -167 171 -26 55 -26
59 -28 306 -2 250 -2 250 25 315 29 73 94 146 160 179 46 23 107 37 196 45
119 11 224 84 278 194 29 59 33 76 33 152 0 76 -4 93 -32 151 -38 77 -93 131
-171 167 -49 23 -70 27 -147 26 -77 0 -97 -4 -141 -27 -71 -36 -109 -70 -156
-141 -49 -73 -70 -95 -123 -129 -56 -36 -131 -55 -201 -52 -77 4 -94 8 -155
42 -158 85 -223 287 -146 453 30 66 106 169 180 244 157 159 343 258 564 300
93 17 272 17 363 0z m-15 -2829 c310 -173 201 -641 -152 -651 -149 -5 -268 69
-332 206 -37 79 -37 201 0 280 33 71 71 115 134 156 65 41 122 54 214 49 61
-4 85 -11 136 -40z"/>
</g>
</svg>
